# xmcd CD database file
#
# Track frame offsets:
#	150
#	14819
#	24983
#	38944
#	50598
#	68641
#	81404
#	94861
#	104287
#	129071
#	140747
#	151922
#	165651
#	177075
#	189424
#	200399
#	214372
#	222805
#	233652
#	247357
#	261837
#	274307
#	299629
#
# Disc length: 4204 seconds
#
# Revision: 0
# Processed by: cddbd v1.5.2PL0 Copyright (c) Steve Scherf et al.
# Submitted via: CDex 1.80
#
DISCID=5c106a17
DTITLE=Russell Garcia - Russell Garcia and his Four Trombone Band
DYEAR=2010
DGENRE=Jazz
TTITLE0=I'll Never Forget What's Her Name
TTITLE1=But Beautiful
TTITLE2=Dancing on the Ceiling
TTITLE3=The Boy Next Door
TTITLE4=Just One of Those Things
TTITLE5=Zigeuner
TTITLE6=Limehouse Blues
TTITLE7=Lush Life
TTITLE8=Lover, Come Back to Me
TTITLE9=Ramona
TTITLE10=Someone to Watch Over Me
TTITLE11=What Is This Thing Called Love?
TTITLE12=Toreador
TTITLE13=They Can't Take That Away from Me
TTITLE14=He's Funny That Way
TTITLE15=I've Got You Under My Skin
TTITLE16=All of a Sudden My Heart Sings
TTITLE17=Somebody Loves Me
TTITLE18=September in the Rain
TTITLE19=These Foolish Things
TTITLE20=Love for Sale
TTITLE21=Little Girl Blue/Where or When/Embraceable You/Exactly Like You/I Don't Know Why/My Funny Valentine/Bewitched
TTITLE22=Out of This World
EXTD=YEAR: 2010
EXTT0=
EXTT1=
EXTT2=
EXTT3=
EXTT4=
EXTT5=
EXTT6=
EXTT7=
EXTT8=
EXTT9=
EXTT10=
EXTT11=
EXTT12=
EXTT13=
EXTT14=
EXTT15=
EXTT16=
EXTT17=
EXTT18=
EXTT19=
EXTT20=
EXTT21=
EXTT22=
PLAYORDER=
